<svg width="198" height="198" viewBox="0 0 198 198" fill="none" xmlns="http://www.w3.org/2000/svg">
<path d="M193 3.43323e-05C195.761 3.43323e-05 198.013 2.24006 197.874 4.99797C197.303 16.2912 194.801 27.416 190.464 37.8857C185.489 49.8969 178.197 60.8106 169.004 70.0036C159.811 79.1966 148.897 86.4889 136.886 91.4641C124.874 96.4393 112.001 99 99 99L99 5.00003C99 2.23861 101.239 3.43323e-05 104 3.43323e-05H193Z" fill="url(#paint0_linear_5_11)"/>
<path d="M198 193C198 195.762 195.76 198.013 193.002 197.874C181.709 197.303 170.584 194.801 160.114 190.464C148.103 185.489 137.189 178.197 127.996 169.004C118.803 159.811 111.511 148.897 106.536 136.886C101.561 124.875 98.9999 112.001 98.9999 99.0001L193 99.0001C195.761 99.0001 198 101.239 198 104V193Z" fill="url(#paint1_linear_5_11)"/>
<path d="M7.24792e-05 5C7.24792e-05 2.23858 2.2401 -0.0131682 4.998 0.126237C16.2912 0.697082 27.4161 3.19925 37.8857 7.53592C49.897 12.5111 60.8107 19.8034 70.0037 28.9964C79.1967 38.1894 86.4889 49.1031 91.4642 61.1144C96.4394 73.1256 99.0001 85.9992 99.0001 99L5.00007 99C2.23865 99 7.24792e-05 96.7614 7.24792e-05 94L7.24792e-05 5Z" fill="url(#paint2_linear_5_11)"/>
<path d="M5 198C2.23858 198 -0.0131716 195.76 0.126233 193.002C0.697078 181.709 3.19925 170.584 7.53592 160.114C12.5111 148.103 19.8034 137.19 28.9964 127.997C38.1894 118.804 49.1031 111.511 61.1143 106.536C73.1256 101.561 85.9991 99.0001 99 99.0001L99 193C99 195.762 96.7614 198 94 198L5 198Z" fill="url(#paint3_linear_5_11)"/>
<defs>
<linearGradient id="paint0_linear_5_11" x1="148.5" y1="3.43323e-05" x2="148.5" y2="99" gradientUnits="userSpaceOnUse">
<stop stop-color="#16C7E7"/>
<stop offset="1" stop-color="#B548C6"/>
</linearGradient>
<linearGradient id="paint1_linear_5_11" x1="198" y1="148.5" x2="98.9999" y2="148.5" gradientUnits="userSpaceOnUse">
<stop stop-color="#16C7E7"/>
<stop offset="1" stop-color="#B548C6"/>
</linearGradient>
<linearGradient id="paint2_linear_5_11" x1="7.24792e-05" y1="49.5" x2="99.0001" y2="49.5" gradientUnits="userSpaceOnUse">
<stop stop-color="#16C7E7"/>
<stop offset="1" stop-color="#B548C6"/>
</linearGradient>
<linearGradient id="paint3_linear_5_11" x1="49.5" y1="198" x2="49.5" y2="99.0001" gradientUnits="userSpaceOnUse">
<stop stop-color="#16C7E7"/>
<stop offset="1" stop-color="#B548C6"/>
</linearGradient>
</defs>
</svg>
